<svg xmlns="http://www.w3.org/2000/svg" viewBox="0 0 32 32"><title>Artboard-17</title><g id="User_Pin" data-name="User Pin"><circle cx="16" cy="12" r="2" style="fill:#262628"/><path d="M16,16a3.9855,3.9855,0,0,0-3.4217,1.9221l.0023.0017a6.11,6.11,0,0,0,6.8388,0l.0023-.0017A3.9855,3.9855,0,0,0,16,16Z" style="fill:#262628"/><path d="M13.11,14.7512a4,4,0,1,1,5.7794,0,5.9455,5.9455,0,0,1,1.9722,1.7509,6,6,0,1,0-9.7238,0A5.9455,5.9455,0,0,1,13.11,14.7512Z" style="fill:#262628"/><path d="M16,1A12.0137,12.0137,0,0,0,4,13c0,6.4175,10.834,17.2515,11.2954,17.71a1,1,0,0,0,1.4092,0C17.166,30.2515,28,19.4175,28,13A12.0137,12.0137,0,0,0,16,1Zm0,20a8,8,0,1,1,8-8A8.03,8.03,0,0,1,16,21Z" style="fill:#262628"/></g></svg>